# Blender v2.79 (sub 0) OBJ File: 'randomObject.blend'
# www.blender.org
mtllib randomObject.mtl
o Cube
v 1.891539 -1.000000 -0.785676
v 1.000000 -1.000000 1.000000
v -1.813607 -1.000000 1.000000
v -1.000000 -1.000000 -1.000000
v 1.000000 0.497979 -0.999999
v 0.365761 1.781197 1.446720
v -1.328208 0.307087 1.000000
v -1.813607 1.000000 -1.377826
vn 0.0000 -1.0000 -0.0000
vn 0.1372 0.9582 0.2512
vn 0.8612 0.5065 -0.0424
vn -0.1012 -0.1802 0.9784
vn -0.8997 0.3341 0.2810
vn 0.1205 -0.0700 -0.9902
vn -0.4891 0.7139 -0.5012
vn 0.8870 0.1311 0.4428
vn -0.8453 -0.4088 -0.3439
vn -0.0000 0.0000 1.0000
vn 0.0730 -0.1564 -0.9850
usemtl Material
s off
f 1//1 2//1 3//1 4//1
f 5//2 8//2 7//2
f 1//3 5//3 6//3
f 2//4 6//4 7//4
f 3//5 7//5 8//5
f 5//6 1//6 8//6
f 7//7 6//7 5//7
f 6//8 2//8 1//8
f 8//9 4//9 3//9
f 7//10 3//10 2//10
f 8//11 1//11 4//11
